<svg width="60" height="60" viewBox="0 0 60 60" fill="none" xmlns="http://www.w3.org/2000/svg">
<path fill-rule="evenodd" clip-rule="evenodd" d="M28.4598 41.8431H7.02035C6.8163 41.8442 6.62094 41.9258 6.47665 42.0701C6.33236 42.2144 6.25078 42.4098 6.24961 42.6138V43.3847H29.2301V42.6138C29.2289 42.4098 29.1473 42.2144 29.003 42.0701C28.8587 41.9258 28.6634 41.8442 28.4593 41.8431H28.4598ZM30.2528 49.0896H5.22656C4.79025 49.0915 4.37234 49.2656 4.06382 49.5742C3.7553 49.8827 3.58114 50.3006 3.57926 50.7369V51.9866C3.58018 52.0918 3.62236 52.1924 3.69673 52.2667C3.7711 52.3411 3.8717 52.3833 3.97688 52.3842H31.5029C31.6081 52.3833 31.7087 52.3411 31.7831 52.2668C31.8575 52.1924 31.8997 52.0918 31.9005 51.9866V50.7369C31.8991 50.349 31.7615 49.9738 31.5119 49.6769C31.2623 49.3799 30.9164 49.1799 30.5345 49.1117L30.2532 49.0896H30.2528ZM28.5879 47.3851C28.0576 46.6948 27.6507 45.9181 27.3851 45.0892H8.02336C7.75778 45.9181 7.35076 46.6949 6.82031 47.3851H28.5879ZM26.0977 39.3452L25.9086 38.9402C23.921 34.9373 19.2715 31.7858 17.4517 26.857C17.1332 25.9943 17.1076 25.5742 17.0931 25.3412C16.9537 23.2428 16.9616 23.249 18.8468 24.7912C20.4966 26.141 21.9523 26.5387 24.0645 26.7224C24.7614 26.7828 25.1801 26.8193 25.7827 27.2713C26.3466 27.6942 27.1315 28.6724 27.6281 28.8739C28.6203 29.2765 30.5796 28.3521 30.9183 27.5171C31.225 26.7615 29.1205 24.028 27.9646 22.5265C27.7125 22.1989 27.4985 21.9211 27.3797 21.7567C25.8445 19.6338 25.7687 18.2165 24.8337 16.7915C24.4448 16.1992 23.7622 15.7173 23.4207 15.4761C22.498 14.8249 22.498 14.8249 22.8984 13.7567L23.4404 12.3463C21.1649 11.6351 18.6102 11.7266 16.2912 12.2069C11.9201 13.1121 8.74629 15.5632 6.84973 18.8487C4.935 22.1656 4.30676 26.3442 5.04668 30.6628C5.63848 34.115 7.11668 36.589 7.71434 40.1389H26.4057L26.0986 39.3456L26.0977 39.3452ZM32.0508 47.9131C31.7365 47.7122 31.3908 47.5652 31.028 47.4785C30.5026 47.0486 30.0453 46.5417 29.6715 45.9751C29.4885 45.6939 29.3301 45.3975 29.198 45.0892C29.4287 45.0992 29.659 45.061 29.8742 44.9769C30.0893 44.8929 30.2846 44.7649 30.4474 44.6011C31.0307 44.018 30.9355 43.394 30.9355 42.6138C30.9342 41.9577 30.673 41.3289 30.2091 40.865C29.7451 40.4011 29.1163 40.1399 28.4603 40.1386H28.1873C28.1241 39.923 28.0547 39.7069 27.9792 39.4901C27.8951 39.2494 27.8029 39.0102 27.7025 38.7726V34.8082H32.0502V47.9131H32.0508ZM48.7111 50.5646H53.0593V23.9024H48.7106V50.5646H48.7111ZM38.2068 50.5646H42.555V30.2001H38.2063V50.5646H38.2068ZM57.2732 50.5646C57.4992 50.5646 57.716 50.6544 57.8758 50.8143C58.0357 50.9741 58.1255 51.1909 58.1255 51.4169C58.1255 51.643 58.0357 51.8598 57.8758 52.0196C57.716 52.1794 57.4992 52.2692 57.2732 52.2692H33.5859C33.5166 52.7728 33.2675 53.2342 32.8847 53.5686C32.5019 53.903 32.0111 54.0877 31.5028 54.0887H3.97711C3.41991 54.0877 2.88582 53.8659 2.49182 53.4719C2.09782 53.0779 1.87602 52.5438 1.875 51.9866V50.7369C1.87696 50.0003 2.12066 49.2848 2.56867 48.7001C3.01668 48.1155 3.64422 47.6941 4.35492 47.5006C4.89112 47.0658 5.35748 46.5513 5.73773 45.9751C5.92074 45.6939 6.07918 45.3975 6.21129 45.0892C5.7697 45.0892 5.34613 44.914 5.03364 44.602C4.72114 44.29 4.54527 43.8667 4.54465 43.4251V42.6136C4.54553 42.1333 4.68577 41.6637 4.94835 41.2615C5.21092 40.8594 5.58455 40.5422 6.02391 40.3482C5.45836 37.0332 3.97687 34.5006 3.36809 30.9485C2.56172 26.2451 3.26262 21.6664 5.3775 18.0024C7.64133 14.0815 11.4677 11.297 16.5962 10.4181C19.3127 9.95236 22.0007 9.98377 24.6209 10.9571V10.9554C25.05 11.1143 25.2504 11.1889 25.3687 11.6831C25.4637 12.0798 25.3328 12.2553 25.1734 12.6028C25.0082 12.9722 24.7255 13.7179 24.5483 14.1897C26.1087 15.3067 26.5555 16.1532 27.2893 17.961C27.904 19.4753 28.18 20.0208 29.3091 21.4869C30.6771 23.264 33.1678 26.4992 32.4956 28.1556C31.7662 29.9533 28.4593 31.4081 26.5959 30.2516C25.8043 29.7602 25.2519 28.9951 24.7634 28.6288C24.4902 28.4239 23.9782 28.4307 23.4669 28.3747C21.9703 28.2106 20.7091 27.9137 19.4701 27.2563C21.0404 30.5299 23.8282 32.9014 25.9975 35.8708V33.956C25.9974 33.8441 26.0195 33.7332 26.0623 33.6298C26.1051 33.5264 26.1679 33.4325 26.247 33.3533C26.3262 33.2742 26.4201 33.2114 26.5235 33.1686C26.6269 33.1257 26.7377 33.1037 26.8496 33.1037H32.9025C33.0144 33.1037 33.1253 33.1257 33.2287 33.1686C33.3321 33.2114 33.426 33.2742 33.5052 33.3533C33.5843 33.4325 33.6471 33.5264 33.6899 33.6298C33.7328 33.7332 33.7548 33.8441 33.7548 33.956V50.5646H36.5017V29.3478C36.5017 29.1218 36.5915 28.9051 36.7513 28.7452C36.9111 28.5854 37.1278 28.4956 37.3539 28.4956H43.4067C43.6327 28.4956 43.8495 28.5854 44.0093 28.7452C44.1692 28.905 44.259 29.1218 44.259 29.3478V50.5646H47.0059V23.0501C47.0059 22.824 47.0957 22.6073 47.2556 22.4475C47.4154 22.2877 47.6322 22.1979 47.8582 22.1979H53.911C54.1371 22.1979 54.3538 22.2877 54.5136 22.4475C54.6735 22.6073 54.7632 22.824 54.7632 23.0501V50.5646H57.2732ZM56.267 9.08799L37.7631 24.9566C37.6783 25.0292 37.58 25.0843 37.4739 25.1189C37.3677 25.1535 37.2558 25.1668 37.1445 25.1582C37.0332 25.1495 36.9247 25.119 36.8252 25.0684C36.7257 25.0178 36.6372 24.9481 36.5646 24.8633C36.492 24.7785 36.4369 24.6802 36.4023 24.5741C36.3677 24.4679 36.3544 24.356 36.363 24.2447C36.3717 24.1335 36.4022 24.025 36.4528 23.9255C36.5034 23.826 36.5731 23.7374 36.6579 23.6648L55.1602 7.79752L52.7367 7.61178C52.5133 7.59276 52.3064 7.48635 52.1609 7.31567C52.0155 7.14499 51.9432 6.92382 51.9599 6.70019C51.9766 6.47657 52.0808 6.26855 52.25 6.12132C52.4191 5.97409 52.6395 5.89953 52.8633 5.91385L57.3359 6.25674C57.5609 6.27367 57.77 6.37926 57.9173 6.55031C58.0645 6.72136 58.1378 6.94386 58.121 7.16893L57.7781 11.6416C57.7591 11.8651 57.6527 12.072 57.482 12.2174C57.3113 12.3629 57.0902 12.4351 56.8665 12.4184C56.6429 12.4017 56.4349 12.2975 56.2877 12.1284C56.1404 11.9592 56.0659 11.7388 56.0802 11.5151L56.267 9.08799Z" fill="#D4EF58"/>
</svg>
